#!OML:ASF H:\ManfredETheater\Project 1\Capture day 1\Session 1\subject.ASF
:FULLY-SPECIFIED
:DEGREES
247
root -1.88188 17.6218 -35.409 191.167 -24.5468 -180.21
lowerback 26.7368 -0.527407 4.40395
upperback 2.4642 0.423274 3.63778
thorax -12.138 -0.192064 1.50951
lowerneck -10.4595 -10.6976 -10.5646
upperneck -0.5256 -13.5398 11.3866
head 3.02081 -6.51967 4.20782
rclavicle 4.53229e-014 2.8625e-014
rhumerus -17.6383 -23.0167 -75.7629
rradius 37.2669
rwrist -4.14831
rhand -22.9521 -15.6504
rfingers 7.12502
rthumb 3.48938 -45.6016
lclavicle 4.53229e-014 2.8625e-014
lhumerus -29.6032 1.85822 80.6735
lradius 53.2137
lwrist -17.1331
lhand -32.5299 1.72916
lfingers 7.12502
lthumb -5.76035 31.6309
rfemur -52.0705 -13.9392 11.4593
rtibia 62.7969
rfoot -2.79311 -10.0087
rtoes -19.1865
lfemur -57.259 1.34956 -5.09853
ltibia 57.1358
lfoot -4.87118 -18.6666
ltoes -19.0221
248
root -1.89278 17.5688 -35.5856 191.259 -23.4866 -180.439
lowerback 26.4967 -0.51756 4.57991
upperback 2.38576 0.484159 3.67577
thorax -12.0991 -0.170659 1.42691
lowerneck -10.6147 -10.5273 -10.4701
upperneck -0.229356 -13.2892 10.8281
head 3.05716 -6.39761 4.03871
rclavicle -6.99722e-014 -1.11319e-014
rhumerus -17.8807 -23.4689 -75.8786
rradius 37.8277
rwrist -4.43462
rhand -23.4219 -15.5483
rfingers 7.12502
rthumb 3.0357 -45.5064
lclavicle -6.99722e-014 -1.11319e-014
lhumerus -30.5151 2.3827 80.4108
lradius 53.4057
lwrist -16.806
lhand -32.3993 1.78814
lfingers 7.12502
lthumb -5.63425 31.6932
rfemur -50.6377 -12.4677 9.04031
rtibia 59.5193
rfoot -0.417884 -12.7681
rtoes -14.8889
lfemur -56.0994 1.1071 -4.60449
ltibia 54.3205
lfoot -3.70405 -18.8875
ltoes -19.757
249
root -1.90458 17.4995 -35.7674 191.263 -22.4071 -180.561
lowerback 26.2403 -0.526133 4.79962
upperback 2.31631 0.530049 3.73389
thorax -12.0401 -0.158914 1.34761
lowerneck -10.7982 -10.3187 -10.3297
upperneck 0.0973228 -12.9903 10.2396
head 3.09948 -6.25312 3.85632
rclavicle -9.38264e-014 3.18055e-015
rhumerus -18.1418 -23.8428 -75.9946
rradius 38.4272
rwrist -4.66398
rhand -23.8147 -15.4395
rfingers 7.12502
rthumb 2.65632 -45.4027
lclavicle -9.38264e-014 3.18055e-015
lhumerus -31.5071 2.93691 80.0919
lradius 53.6842
lwrist -16.3432
lhand -32.2071 1.89107
lfingers 7.12502
lthumb -5.44867 31.801
rfemur -49.1558 -10.8076 6.78492
rtibia 56.229
rfoot 2.17247 -14.3077
rtoes -10.8395
lfemur -54.9972 0.910703 -4.07052
ltibia 52.0116
lfoot -2.70722 -18.8088
ltoes -20.3306
250
root -1.91681 17.4114 -35.9542 191.162 -21.3101 -180.573
lowerback 25.9695 -0.550052 5.05761
upperback 2.26927 0.560304 3.81557
thorax -11.9466 -0.157278 1.2785
lowerneck -10.986 -10.0651 -10.1381
upperneck 0.423225 -12.6358 9.62535
head 3.1348 -6.08382 3.66352
rclavicle -1.35174e-014 -4.13472e-014
rhumerus -18.4015 -24.1472 -76.112
rradius 39.0476
rwrist -4.77426
rhand -24.1296 -15.3183
rfingers 7.12502
rthumb 2.35221 -45.285
lclavicle -1.35174e-014 -4.13472e-014
lhumerus -32.5755 3.50245 79.7231
lradius 54.0604
lwrist -15.7937
lhand -31.9792 2.03839
lfingers 7.12502
lthumb -5.22861 31.9539
rfemur -47.6621 -9.0814 4.77825
rtibia 53.0908
rfoot 4.4473 -14.812
rtoes -9.10003
lfemur -53.9649 0.806028 -3.53155
ltibia 50.2791
lfoot -1.92043 -18.6253
ltoes -19.7902
251
root -1.92847 17.3047 -36.1454 190.946 -20.2118 -180.481
lowerback 25.723 -0.594396 5.35414
upperback 2.23105 0.572175 3.91837
thorax -11.8554 -0.167268 1.21872
lowerneck -11.1377 -9.76776 -9.90518
upperneck 0.744153 -12.2301 9.00116
head 3.15885 -5.89197 3.4676
rclavicle 9.54166e-015 1.27222e-014
rhumerus -18.692 -24.3832 -76.2199
rradius 39.6858
rwrist -4.74768
rhand -24.3922 -15.1582
rfingers 7.12502
rthumb 2.09861 -45.1276
lclavicle 9.54166e-015 1.27222e-014
lhumerus -33.7382 4.05022 79.3077
lradius 54.5249
lwrist -15.2127
lhand -31.7591 2.205
lfingers 7.12502
lthumb -5.01611 32.1256
rfemur -46.1861 -7.45374 3.1262
rtibia 50.279
rfoot 5.98788 -14.3522
rtoes -9.65035
lfemur -53.001 0.825976 -3.01385
ltibia 49.1677
lfoot -1.53107 -18.3845
ltoes -18.5664
252
root -1.9382 17.1802 -36.3396 190.606 -19.1231 -180.298
lowerback 25.4994 -0.657337 5.67015
upperback 2.21775 0.559087 4.03909
thorax -11.7476 -0.191319 1.17715
lowerneck -11.2409 -9.43162 -9.63437
upperneck 1.0392 -11.781 8.38872
head 3.16659 -5.68105 3.27532
rclavicle 1.51076e-014 3.18055e-015
rhumerus -18.9846 -24.5694 -76.3315
rradius 40.3319
rwrist -4.53175
rhand -24.5808 -14.9908
rfingers 7.12502
rthumb 1.91642 -44.962
lclavicle 1.51076e-014 3.18055e-015
lhumerus -34.9745 4.57416 78.8524
lradius 55.0786
lwrist -14.6725
lhand -31.584 2.36648
lfingers 7.12502
lthumb -4.84709 32.291
rfemur -44.7604 -6.09449 1.92865
rtibia 47.9559
rfoot 6.47447 -13.1734
rtoes -12.7545
lfemur -52.0806 1.00567 -2.54958
ltibia 48.6839
lfoot -1.62673 -18.0923
ltoes -16.3896
253
root -1.94448 17.0411 -36.5341 190.136 -18.0616 -180.04
lowerback 25.3393 -0.742291 5.99959
upperback 2.21628 0.519604 4.16757
thorax -11.6606 -0.230162 1.14731
lowerneck -11.2625 -9.06383 -9.32136
upperneck 1.31001 -11.3015 7.79651
head 3.15538 -5.45688 3.08819
rclavicle 0 7.95139e-014
rhumerus -19.3024 -24.7 -76.4507
rradius 40.9757
rwrist -4.23169
rhand -24.7558 -14.7771
rfingers 7.12502
rthumb 1.74739 -44.7497
lclavicle 0 7.95139e-014
lhumerus -36.2823 5.0475 78.3591
lradius 55.7049
lwrist -14.2231
lhand -31.488 2.49671
lfingers 7.12502
lthumb -4.75432 32.4234
rfemur -43.4185 -5.13609 1.25083
rtibia 46.2459
rfoot 5.72692 -11.6271
rtoes -17.0476
lfemur -51.1737 1.35578 -2.15187
ltibia 48.7917
lfoot -2.28997 -17.7631
ltoes -13.3967
254
root -1.94593 16.8934 -36.7254 189.534 -17.0581 -179.732
lowerback 25.2858 -0.854185 6.33073
upperback 2.2355 0.445881 4.29877
thorax -11.608 -0.287829 1.13374
lowerneck -11.2548 -8.68149 -8.9729
upperneck 1.575 -10.8103 7.23083
head 3.14155 -5.22697 2.90439
rclavicle 1.27222e-014 -6.04305e-014
rhumerus -19.6189 -24.7931 -76.5882
rradius 41.6209
rwrist -3.87427
rhand -24.932 -14.5291
rfingers 7.12502
rthumb 1.57728 -44.503
lclavicle 1.27222e-014 -6.04305e-014
lhumerus -37.6016 5.47527 77.8462
lradius 56.3853
lwrist -13.892
lhand -31.4639 2.57999
lfingers 7.12502
lthumb -4.73106 32.5072
rfemur -42.1629 -4.60541 1.0478
rtibia 45.2224
rfoot 3.88467 -9.97117
rtoes -22.1666
lfemur -50.2499 1.82054 -1.80261
ltibia 49.4161
lfoot -3.53999 -17.2553
ltoes -10.0131
255
root -1.94213 16.7417 -36.9104 188.788 -16.1281 -179.414
lowerback 25.4042 -0.998083 6.6314
upperback 2.27631 0.328337 4.4207
thorax -11.6244 -0.368205 1.14666
lowerneck -11.2381 -8.29031 -8.58615
upperneck 1.83734 -10.314 6.69153
head 3.12963 -4.99392 2.72189
rclavicle -4.77083e-015 -1.59028e-014
rhumerus -19.9102 -24.8449 -76.7536
rradius 42.2516
rwrist -3.49863
rhand -25.1019 -14.276
rfingers 7.12502
rthumb 1.41312 -44.251
lclavicle -4.77083e-015 -1.59028e-014
lhumerus -38.8937 5.87619 77.3199
lradius 57.089
lwrist -13.6977
lhand -31.5037 2.60354
lfingers 7.12502
lthumb -4.76953 32.5299
rfemur -41.0165 -4.5128 1.22915
rtibia 44.9052
rfoot 1.35325 -8.37145
rtoes -27.5943
lfemur -49.264 2.29503 -1.46274
ltibia 50.4578
lfoot -5.3263 -16.5616
ltoes -6.93913
256
root -1.9342 16.5914 -37.085 187.94 -15.2183 -179.088
lowerback 25.7014 -1.15378 6.89259
upperback 2.3385 0.192955 4.52802
thorax -11.7128 -0.459087 1.17744
lowerneck -11.254 -7.89567 -8.1515
upperneck 2.09784 -9.81735 6.16081
head 3.12528 -4.76017 2.53194
rclavicle -7.95139e-015 1.11319e-014
rhumerus -20.1377 -24.8535 -76.9588
rradius 42.8638
rwrist -3.13436
rhand -25.2547 -14.0782
rfingers 7.12502
rthumb 1.26562 -44.0541
lclavicle -7.95139e-015 1.11319e-014
lhumerus -40.1073 6.28664 76.791
lradius 57.8019
lwrist -13.6416
lhand -31.5977 2.56116
lfingers 7.12502
lthumb -4.86025 32.4854
rfemur -40.0836 -4.75395 1.68878
rtibia 45.2484
rfoot -1.53907 -6.93841
rtoes -31.7682
lfemur -48.2303 2.71929 -1.06503
ltibia 51.8088
lfoot -7.46823 -15.6408
ltoes -4.46352
257
root -1.92428 16.4487 -37.2486 187.087 -14.2663 -178.796
lowerback 26.1432 -1.29717 7.08027
upperback 2.40272 0.0643591 4.60309
thorax -11.8762 -0.545852 1.21716
lowerneck -11.3237 -7.49974 -7.67118
upperneck 2.35334 -9.32184 5.63202
head 3.13093 -4.52652 2.33229
rclavicle -2.06736e-014 -4.6118e-014
rhumerus -20.2904 -24.8001 -77.2086
rradius 43.4588
rwrist -2.82573
rhand -25.3755 -13.9712
rfingers 7.12502
rthumb 1.1489 -43.9479
lclavicle -2.06736e-014 -4.6118e-014
lhumerus -41.2116 6.73421 76.2642
lradius 58.4975
lwrist -13.7009
lhand -31.7057 2.45592
lfingers 7.12502
lthumb -4.9646 32.3778
rfemur -39.4784 -5.22296 2.28231
rtibia 46.1505
rfoot -4.37791 -5.62337
rtoes -34.6192
lfemur -47.1963 3.0534 -0.609084
ltibia 53.3577
lfoot -9.80975 -14.5174
ltoes -3.01247
258
root -1.91408 16.318 -37.4016 186.307 -13.2461 -178.537
lowerback 26.6715 -1.41228 7.19834
upperback 2.46386 -0.0388273 4.65204
thorax -12.088 -0.618789 1.26255
lowerneck -11.3907 -7.10567 -7.20132
upperneck 2.29616 -8.81815 4.93603
head 3.39817 -4.30829 2.31942
rclavicle -1.66979e-014 -5.40694e-014
rhumerus -20.3432 -24.6742 -77.4976
rradius 44.035
rwrist -2.58666
rhand -25.4653 -13.9528
rfingers 7.12502
rthumb 1.06219 -43.9299
lclavicle -1.66979e-014 -5.40694e-014
lhumerus -42.1667 7.23846 75.7612
lradius 59.1477
lwrist -13.8469
lhand -31.8094 2.31926
lfingers 7.12502
lthumb -5.06465 32.2387
rfemur -39.2628 -5.7947 2.92072
rtibia 47.46
rfoot -6.82063 -4.47965
rtoes -36.5851
lfemur -46.2154 3.28902 -0.0859331
ltibia 54.9987
lfoot -12.1617 -13.2246
ltoes -2.70754
259
root -1.90542 16.2035 -37.5456 185.655 -12.1398 -178.323
lowerback 27.2361 -1.48487 7.2411
upperback 2.51726 -0.103186 4.67931
thorax -12.3261 -0.670138 1.31491
lowerneck -11.6002 -6.71369 -6.68078
upperneck 2.48414 -8.32799 4.43093
head 3.41004 -4.07584 2.08702
rclavicle 7.15625e-015 5.56597e-014
rhumerus -20.2862 -24.4613 -77.8097
rradius 44.575
rwrist -2.42592
rhand -25.5456 -13.9889
rfingers 7.12502
rthumb 0.984655 -43.9664
lclavicle 7.15625e-015 5.56597e-014
lhumerus -42.9614 7.80032 75.3071
lradius 59.7319
lwrist -14.0249
lhand -31.8991 2.18907
lfingers 7.12502
lthumb -5.1513 32.1065
rfemur -39.4122 -6.35275 3.53153
rtibia 48.999
rfoot -8.74652 -3.18548
rtoes -37.1363
lfemur -45.3212 3.45053 0.467767
ltibia 56.6323
lfoot -14.3269 -11.8309
ltoes -3.75606
